<mxfile host="app.diagrams.net" modified="2023-09-06T22:35:59.833Z" agent="Mozilla/5.0 (Windows NT 10.0; Win64; x64) AppleWebKit/537.36 (KHTML, like Gecko) Chrome/116.0.0.0 Safari/537.36" etag="JrdMYcotVCocur735MtT" version="21.7.2" type="github">
  <diagram name="Página-1" id="vhzFF3WJnwFL6X2i2Ius">
    <mxGraphModel dx="2901" dy="791" grid="1" gridSize="10" guides="1" tooltips="1" connect="1" arrows="1" fold="1" page="1" pageScale="1" pageWidth="827" pageHeight="1169" math="0" shadow="0">
      <root>
        <mxCell id="0" />
        <mxCell id="1" parent="0" />
        <mxCell id="oiIjnjoe4jB1COE6UItx-1" value="" style="whiteSpace=wrap;html=1;aspect=fixed;fillColor=#f5f5f5;fontColor=#333333;strokeColor=#666666;" parent="1" vertex="1">
          <mxGeometry width="580" height="580" as="geometry" />
        </mxCell>
        <mxCell id="oiIjnjoe4jB1COE6UItx-2" value="CADASTRO DOS PÃES" style="text;html=1;strokeColor=none;fillColor=none;align=center;verticalAlign=middle;whiteSpace=wrap;rounded=0;fontStyle=5;fontSize=19;" parent="1" vertex="1">
          <mxGeometry x="150" y="10" width="270" height="30" as="geometry" />
        </mxCell>
        <mxCell id="oiIjnjoe4jB1COE6UItx-3" value="DADOS DO PRODUTO" style="text;html=1;strokeColor=none;fillColor=none;align=center;verticalAlign=middle;whiteSpace=wrap;rounded=0;fontStyle=1;fontSize=14;" parent="1" vertex="1">
          <mxGeometry x="50" y="60" width="160" height="30" as="geometry" />
        </mxCell>
        <mxCell id="oiIjnjoe4jB1COE6UItx-4" value="NOME DO PRODUTO" style="text;html=1;strokeColor=none;fillColor=none;align=center;verticalAlign=middle;whiteSpace=wrap;rounded=0;" parent="1" vertex="1">
          <mxGeometry x="30" y="110" width="130" height="30" as="geometry" />
        </mxCell>
        <mxCell id="oiIjnjoe4jB1COE6UItx-5" value="" style="rounded=1;whiteSpace=wrap;html=1;" parent="1" vertex="1">
          <mxGeometry x="30" y="140" width="310" height="20" as="geometry" />
        </mxCell>
        <mxCell id="oiIjnjoe4jB1COE6UItx-10" value="CATEGORIA" style="text;html=1;strokeColor=none;fillColor=none;align=center;verticalAlign=middle;whiteSpace=wrap;rounded=0;" parent="1" vertex="1">
          <mxGeometry x="30" y="180" width="100" height="30" as="geometry" />
        </mxCell>
        <mxCell id="oiIjnjoe4jB1COE6UItx-11" value="" style="rounded=1;whiteSpace=wrap;html=1;" parent="1" vertex="1">
          <mxGeometry x="30" y="210" width="510" height="20" as="geometry" />
        </mxCell>
        <mxCell id="oiIjnjoe4jB1COE6UItx-17" value="EXCLUIR" style="labelPosition=center;verticalLabelPosition=middle;align=center;html=1;shape=mxgraph.basic.shaded_button;dx=10;fillColor=#f8cecc;strokeColor=#b85450;whiteSpace=wrap;" parent="1" vertex="1">
          <mxGeometry x="460" y="530" width="80" height="40" as="geometry" />
        </mxCell>
        <mxCell id="oiIjnjoe4jB1COE6UItx-18" value="VALOR R$" style="text;html=1;strokeColor=none;fillColor=none;align=center;verticalAlign=middle;whiteSpace=wrap;rounded=0;" parent="1" vertex="1">
          <mxGeometry x="35" y="275" width="70" height="30" as="geometry" />
        </mxCell>
        <mxCell id="oiIjnjoe4jB1COE6UItx-19" value="" style="rounded=1;whiteSpace=wrap;html=1;" parent="1" vertex="1">
          <mxGeometry x="30" y="310" width="100" height="20" as="geometry" />
        </mxCell>
        <mxCell id="oiIjnjoe4jB1COE6UItx-20" value="QUANTIDADE" style="text;html=1;strokeColor=none;fillColor=none;align=center;verticalAlign=middle;whiteSpace=wrap;rounded=0;" parent="1" vertex="1">
          <mxGeometry x="180" y="270" width="60" height="30" as="geometry" />
        </mxCell>
        <mxCell id="oiIjnjoe4jB1COE6UItx-21" value="" style="rounded=1;whiteSpace=wrap;html=1;" parent="1" vertex="1">
          <mxGeometry x="170" y="310" width="100" height="20" as="geometry" />
        </mxCell>
        <mxCell id="oiIjnjoe4jB1COE6UItx-22" value="EDITAR" style="labelPosition=center;verticalLabelPosition=middle;align=center;html=1;shape=mxgraph.basic.shaded_button;dx=10;fillColor=#fff2cc;strokeColor=#d6b656;whiteSpace=wrap;" parent="1" vertex="1">
          <mxGeometry x="370" y="530" width="80" height="40" as="geometry" />
        </mxCell>
        <mxCell id="oiIjnjoe4jB1COE6UItx-23" value="SALVAR" style="labelPosition=center;verticalLabelPosition=middle;align=center;html=1;shape=mxgraph.basic.shaded_button;dx=10;fillColor=#d5e8d4;strokeColor=#82b366;whiteSpace=wrap;" parent="1" vertex="1">
          <mxGeometry x="280" y="530" width="80" height="40" as="geometry" />
        </mxCell>
        <mxCell id="oiIjnjoe4jB1COE6UItx-24" style="edgeStyle=orthogonalEdgeStyle;rounded=0;orthogonalLoop=1;jettySize=auto;html=1;exitX=1;exitY=1;exitDx=0;exitDy=0;entryX=0.99;entryY=0.997;entryDx=0;entryDy=0;entryPerimeter=0;" parent="1" source="oiIjnjoe4jB1COE6UItx-1" target="oiIjnjoe4jB1COE6UItx-1" edge="1">
          <mxGeometry relative="1" as="geometry" />
        </mxCell>
        <mxCell id="U2kCYm-Y_Qdvc8giH2do-2" value="PESQUISAR" style="labelPosition=center;verticalLabelPosition=middle;align=center;html=1;shape=mxgraph.basic.shaded_button;dx=10;fillColor=#60a917;strokeColor=#2D7600;whiteSpace=wrap;fontColor=#ffffff;" parent="1" vertex="1">
          <mxGeometry x="370" y="130" width="80" height="40" as="geometry" />
        </mxCell>
        <mxCell id="U2kCYm-Y_Qdvc8giH2do-3" value="" style="whiteSpace=wrap;html=1;aspect=fixed;fillColor=#f5f5f5;fontColor=#333333;strokeColor=#666666;" parent="1" vertex="1">
          <mxGeometry y="640" width="580" height="580" as="geometry" />
        </mxCell>
        <mxCell id="U2kCYm-Y_Qdvc8giH2do-4" value="CADASTRO DOS TIPOS DE PÃES" style="text;html=1;strokeColor=none;fillColor=none;align=center;verticalAlign=middle;whiteSpace=wrap;rounded=0;fontStyle=5;fontSize=19;" parent="1" vertex="1">
          <mxGeometry x="130" y="650" width="320" height="30" as="geometry" />
        </mxCell>
        <mxCell id="U2kCYm-Y_Qdvc8giH2do-5" value="NOME DO TIPO DE&amp;nbsp; PRODUTO" style="text;html=1;strokeColor=none;fillColor=none;align=center;verticalAlign=middle;whiteSpace=wrap;rounded=0;" parent="1" vertex="1">
          <mxGeometry x="35" y="730" width="195" height="30" as="geometry" />
        </mxCell>
        <mxCell id="U2kCYm-Y_Qdvc8giH2do-6" value="" style="rounded=1;whiteSpace=wrap;html=1;" parent="1" vertex="1">
          <mxGeometry x="35" y="760" width="295" height="20" as="geometry" />
        </mxCell>
        <mxCell id="U2kCYm-Y_Qdvc8giH2do-7" value="DESCRIÇÃO DO ITEM" style="text;html=1;strokeColor=none;fillColor=none;align=center;verticalAlign=middle;whiteSpace=wrap;rounded=0;" parent="1" vertex="1">
          <mxGeometry x="35" y="800" width="145" height="30" as="geometry" />
        </mxCell>
        <mxCell id="U2kCYm-Y_Qdvc8giH2do-8" value="" style="rounded=1;whiteSpace=wrap;html=1;" parent="1" vertex="1">
          <mxGeometry x="30" y="830" width="500" height="100" as="geometry" />
        </mxCell>
        <mxCell id="U2kCYm-Y_Qdvc8giH2do-9" value="FOTOS DO PRODUTO" style="text;html=1;strokeColor=none;fillColor=none;align=center;verticalAlign=middle;whiteSpace=wrap;rounded=0;" parent="1" vertex="1">
          <mxGeometry x="35" y="960" width="145" height="30" as="geometry" />
        </mxCell>
        <mxCell id="U2kCYm-Y_Qdvc8giH2do-10" value="" style="ellipse;whiteSpace=wrap;html=1;aspect=fixed;" parent="1" vertex="1">
          <mxGeometry x="55" y="1010" width="80" height="80" as="geometry" />
        </mxCell>
        <mxCell id="U2kCYm-Y_Qdvc8giH2do-11" value="" style="ellipse;whiteSpace=wrap;html=1;aspect=fixed;" parent="1" vertex="1">
          <mxGeometry x="170" y="1010" width="80" height="80" as="geometry" />
        </mxCell>
        <mxCell id="U2kCYm-Y_Qdvc8giH2do-12" value="" style="ellipse;whiteSpace=wrap;html=1;aspect=fixed;" parent="1" vertex="1">
          <mxGeometry x="290" y="1010" width="80" height="80" as="geometry" />
        </mxCell>
        <mxCell id="U2kCYm-Y_Qdvc8giH2do-13" value="" style="ellipse;whiteSpace=wrap;html=1;aspect=fixed;" parent="1" vertex="1">
          <mxGeometry x="413.5" y="1010" width="80" height="80" as="geometry" />
        </mxCell>
        <mxCell id="U2kCYm-Y_Qdvc8giH2do-14" value="SALVAR" style="labelPosition=center;verticalLabelPosition=middle;align=center;html=1;shape=mxgraph.basic.shaded_button;dx=10;fillColor=#d5e8d4;strokeColor=#82b366;whiteSpace=wrap;" parent="1" vertex="1">
          <mxGeometry x="280" y="1169" width="80" height="40" as="geometry" />
        </mxCell>
        <mxCell id="U2kCYm-Y_Qdvc8giH2do-15" value="EDITAR" style="labelPosition=center;verticalLabelPosition=middle;align=center;html=1;shape=mxgraph.basic.shaded_button;dx=10;fillColor=#fff2cc;strokeColor=#d6b656;whiteSpace=wrap;" parent="1" vertex="1">
          <mxGeometry x="370" y="1169" width="80" height="40" as="geometry" />
        </mxCell>
        <mxCell id="U2kCYm-Y_Qdvc8giH2do-16" value="EXCLUIR" style="labelPosition=center;verticalLabelPosition=middle;align=center;html=1;shape=mxgraph.basic.shaded_button;dx=10;fillColor=#f8cecc;strokeColor=#b85450;whiteSpace=wrap;" parent="1" vertex="1">
          <mxGeometry x="460" y="1169" width="80" height="40" as="geometry" />
        </mxCell>
        <mxCell id="BkJWETm3DvNP4LqYi8ri-1" value="PESQUISAR" style="labelPosition=center;verticalLabelPosition=middle;align=center;html=1;shape=mxgraph.basic.shaded_button;dx=10;fillColor=#60a917;strokeColor=#2D7600;whiteSpace=wrap;fontColor=#ffffff;" parent="1" vertex="1">
          <mxGeometry x="360" y="750" width="80" height="40" as="geometry" />
        </mxCell>
        <mxCell id="9osInXyy-S7T4AAbR_Op-1" value="" style="whiteSpace=wrap;html=1;aspect=fixed;fillColor=#f5f5f5;strokeColor=#666666;fontColor=#333333;" parent="1" vertex="1">
          <mxGeometry y="1275" width="650" height="650" as="geometry" />
        </mxCell>
        <mxCell id="9osInXyy-S7T4AAbR_Op-2" value="CADASTRO DE CLIENTES&amp;nbsp;" style="text;html=1;strokeColor=none;fillColor=none;align=center;verticalAlign=middle;whiteSpace=wrap;rounded=0;fontStyle=5;fontSize=19;" parent="1" vertex="1">
          <mxGeometry x="180" y="1290" width="270" height="30" as="geometry" />
        </mxCell>
        <mxCell id="9osInXyy-S7T4AAbR_Op-3" value="DADOS DO CLIENETE" style="text;html=1;strokeColor=none;fillColor=none;align=center;verticalAlign=middle;whiteSpace=wrap;rounded=0;fontSize=13;fontStyle=1" parent="1" vertex="1">
          <mxGeometry x="30" y="1340" width="140" height="30" as="geometry" />
        </mxCell>
        <mxCell id="9osInXyy-S7T4AAbR_Op-4" value="NOME COMPLETO" style="text;html=1;strokeColor=none;fillColor=none;align=center;verticalAlign=middle;whiteSpace=wrap;rounded=0;" parent="1" vertex="1">
          <mxGeometry x="10" y="1380" width="140" height="30" as="geometry" />
        </mxCell>
        <mxCell id="9osInXyy-S7T4AAbR_Op-5" value="" style="rounded=1;whiteSpace=wrap;html=1;" parent="1" vertex="1">
          <mxGeometry x="20" y="1410" width="510" height="20" as="geometry" />
        </mxCell>
        <mxCell id="9osInXyy-S7T4AAbR_Op-6" value="DATA DE NASCIMENTO" style="text;html=1;strokeColor=none;fillColor=none;align=center;verticalAlign=middle;whiteSpace=wrap;rounded=0;" parent="1" vertex="1">
          <mxGeometry x="20" y="1440" width="140" height="30" as="geometry" />
        </mxCell>
        <mxCell id="9osInXyy-S7T4AAbR_Op-7" value="" style="rounded=1;whiteSpace=wrap;html=1;" parent="1" vertex="1">
          <mxGeometry x="20" y="1470" width="180" height="20" as="geometry" />
        </mxCell>
        <mxCell id="9osInXyy-S7T4AAbR_Op-8" value="CPF" style="text;html=1;strokeColor=none;fillColor=none;align=center;verticalAlign=middle;whiteSpace=wrap;rounded=0;" parent="1" vertex="1">
          <mxGeometry x="300" y="1440" width="60" height="30" as="geometry" />
        </mxCell>
        <mxCell id="9osInXyy-S7T4AAbR_Op-9" value="" style="rounded=1;whiteSpace=wrap;html=1;" parent="1" vertex="1">
          <mxGeometry x="310" y="1470" width="220" height="20" as="geometry" />
        </mxCell>
        <mxCell id="9osInXyy-S7T4AAbR_Op-10" value="ENDEREÇO" style="text;html=1;strokeColor=none;fillColor=none;align=center;verticalAlign=middle;whiteSpace=wrap;rounded=0;fontSize=13;fontStyle=1" parent="1" vertex="1">
          <mxGeometry x="20" y="1500" width="110" height="30" as="geometry" />
        </mxCell>
        <mxCell id="9osInXyy-S7T4AAbR_Op-11" value="LOGRADOURO" style="text;html=1;strokeColor=none;fillColor=none;align=center;verticalAlign=middle;whiteSpace=wrap;rounded=0;" parent="1" vertex="1">
          <mxGeometry x="40" y="1530" width="60" height="30" as="geometry" />
        </mxCell>
        <mxCell id="9osInXyy-S7T4AAbR_Op-12" value="" style="rounded=1;whiteSpace=wrap;html=1;" parent="1" vertex="1">
          <mxGeometry x="20" y="1560" width="360" height="20" as="geometry" />
        </mxCell>
        <mxCell id="9osInXyy-S7T4AAbR_Op-13" value="NUMERO" style="text;html=1;strokeColor=none;fillColor=none;align=center;verticalAlign=middle;whiteSpace=wrap;rounded=0;" parent="1" vertex="1">
          <mxGeometry x="400" y="1530" width="60" height="30" as="geometry" />
        </mxCell>
        <mxCell id="9osInXyy-S7T4AAbR_Op-14" value="" style="rounded=1;whiteSpace=wrap;html=1;" parent="1" vertex="1">
          <mxGeometry x="400" y="1560" width="130" height="20" as="geometry" />
        </mxCell>
        <mxCell id="9osInXyy-S7T4AAbR_Op-15" value="CEP" style="text;html=1;strokeColor=none;fillColor=none;align=center;verticalAlign=middle;whiteSpace=wrap;rounded=0;" parent="1" vertex="1">
          <mxGeometry x="15" y="1590" width="60" height="30" as="geometry" />
        </mxCell>
        <mxCell id="9osInXyy-S7T4AAbR_Op-16" value="" style="rounded=1;whiteSpace=wrap;html=1;" parent="1" vertex="1">
          <mxGeometry x="20" y="1615" width="130" height="20" as="geometry" />
        </mxCell>
        <mxCell id="9osInXyy-S7T4AAbR_Op-17" value="CIDADE" style="text;html=1;strokeColor=none;fillColor=none;align=center;verticalAlign=middle;whiteSpace=wrap;rounded=0;" parent="1" vertex="1">
          <mxGeometry x="170" y="1590" width="60" height="30" as="geometry" />
        </mxCell>
        <mxCell id="9osInXyy-S7T4AAbR_Op-18" value="" style="rounded=1;whiteSpace=wrap;html=1;" parent="1" vertex="1">
          <mxGeometry x="160" y="1615" width="130" height="20" as="geometry" />
        </mxCell>
        <mxCell id="9osInXyy-S7T4AAbR_Op-19" value="UF" style="text;html=1;strokeColor=none;fillColor=none;align=center;verticalAlign=middle;whiteSpace=wrap;rounded=0;" parent="1" vertex="1">
          <mxGeometry x="310" y="1590" width="60" height="30" as="geometry" />
        </mxCell>
        <mxCell id="9osInXyy-S7T4AAbR_Op-20" value="" style="rounded=1;whiteSpace=wrap;html=1;" parent="1" vertex="1">
          <mxGeometry x="315" y="1615" width="50" height="20" as="geometry" />
        </mxCell>
        <mxCell id="9osInXyy-S7T4AAbR_Op-21" value="COMPLEMENTO" style="text;html=1;strokeColor=none;fillColor=none;align=center;verticalAlign=middle;whiteSpace=wrap;rounded=0;" parent="1" vertex="1">
          <mxGeometry x="420" y="1590" width="60" height="30" as="geometry" />
        </mxCell>
        <mxCell id="9osInXyy-S7T4AAbR_Op-22" value="" style="rounded=1;whiteSpace=wrap;html=1;" parent="1" vertex="1">
          <mxGeometry x="400" y="1615" width="130" height="20" as="geometry" />
        </mxCell>
        <mxCell id="9osInXyy-S7T4AAbR_Op-23" value="CONTATO" style="text;html=1;strokeColor=none;fillColor=none;align=center;verticalAlign=middle;whiteSpace=wrap;rounded=0;fontSize=13;fontStyle=1" parent="1" vertex="1">
          <mxGeometry x="15" y="1650" width="110" height="30" as="geometry" />
        </mxCell>
        <mxCell id="9osInXyy-S7T4AAbR_Op-24" value="TELEFONE&amp;nbsp; 1" style="text;html=1;strokeColor=none;fillColor=none;align=center;verticalAlign=middle;whiteSpace=wrap;rounded=0;" parent="1" vertex="1">
          <mxGeometry x="25" y="1680" width="80" height="30" as="geometry" />
        </mxCell>
        <mxCell id="9osInXyy-S7T4AAbR_Op-25" value="" style="rounded=1;whiteSpace=wrap;html=1;" parent="1" vertex="1">
          <mxGeometry x="20" y="1710" width="225" height="20" as="geometry" />
        </mxCell>
        <mxCell id="9osInXyy-S7T4AAbR_Op-26" value="E-MAIL" style="text;html=1;strokeColor=none;fillColor=none;align=center;verticalAlign=middle;whiteSpace=wrap;rounded=0;" parent="1" vertex="1">
          <mxGeometry x="25" y="1740" width="60" height="30" as="geometry" />
        </mxCell>
        <mxCell id="9osInXyy-S7T4AAbR_Op-27" value="" style="rounded=1;whiteSpace=wrap;html=1;" parent="1" vertex="1">
          <mxGeometry x="20" y="1770" width="510" height="20" as="geometry" />
        </mxCell>
        <mxCell id="9osInXyy-S7T4AAbR_Op-28" value="TELEFONE&amp;nbsp; 2" style="text;html=1;strokeColor=none;fillColor=none;align=center;verticalAlign=middle;whiteSpace=wrap;rounded=0;" parent="1" vertex="1">
          <mxGeometry x="305" y="1680" width="80" height="30" as="geometry" />
        </mxCell>
        <mxCell id="9osInXyy-S7T4AAbR_Op-29" value="" style="rounded=1;whiteSpace=wrap;html=1;" parent="1" vertex="1">
          <mxGeometry x="305" y="1710" width="225" height="20" as="geometry" />
        </mxCell>
        <mxCell id="9osInXyy-S7T4AAbR_Op-30" value="ESTRIÇÃO ALIMENTAR" style="text;html=1;strokeColor=none;fillColor=none;align=center;verticalAlign=middle;whiteSpace=wrap;rounded=0;" parent="1" vertex="1">
          <mxGeometry x="25" y="1800" width="150" height="30" as="geometry" />
        </mxCell>
        <mxCell id="9osInXyy-S7T4AAbR_Op-31" value="" style="rounded=1;whiteSpace=wrap;html=1;" parent="1" vertex="1">
          <mxGeometry x="20" y="1830" width="160" height="20" as="geometry" />
        </mxCell>
        <mxCell id="9osInXyy-S7T4AAbR_Op-32" value="CADASTRAR" style="text;html=1;strokeColor=none;fillColor=none;align=center;verticalAlign=middle;whiteSpace=wrap;rounded=0;" parent="1" vertex="1">
          <mxGeometry x="270" y="1800" width="60" height="30" as="geometry" />
        </mxCell>
        <mxCell id="9osInXyy-S7T4AAbR_Op-33" value="" style="rounded=1;whiteSpace=wrap;html=1;" parent="1" vertex="1">
          <mxGeometry x="265" y="1830" width="185" height="20" as="geometry" />
        </mxCell>
        <mxCell id="9osInXyy-S7T4AAbR_Op-34" value="CADASTRAR" style="labelPosition=center;verticalLabelPosition=middle;align=center;html=1;shape=mxgraph.basic.shaded_button;dx=10;fillColor=#dae8fc;strokeColor=#6c8ebf;whiteSpace=wrap;" parent="1" vertex="1">
          <mxGeometry x="500" y="1815" width="126.5" height="50" as="geometry" />
        </mxCell>
        <mxCell id="9osInXyy-S7T4AAbR_Op-36" value="PESQUISAR" style="labelPosition=center;verticalLabelPosition=middle;align=center;html=1;shape=mxgraph.basic.shaded_button;dx=10;fillColor=#fff2cc;strokeColor=#d6b656;whiteSpace=wrap;" parent="1" vertex="1">
          <mxGeometry x="540" y="1400" width="100" height="40" as="geometry" />
        </mxCell>
        <mxCell id="WNgFyIvflknhDnUbR5kc-2" value="Pesquisar não deveria aparecer para clientes" style="text;html=1;strokeColor=#d6b656;fillColor=#fff2cc;align=center;verticalAlign=middle;whiteSpace=wrap;rounded=0;" parent="1" vertex="1">
          <mxGeometry x="670" y="1350" width="100" height="50" as="geometry" />
        </mxCell>
        <mxCell id="DBrMHQybnCMM6ZI2NZ-J-30" value="" style="whiteSpace=wrap;html=1;aspect=fixed;fillColor=#f5f5f5;fontColor=#333333;strokeColor=#666666;rounded=0;" parent="1" vertex="1">
          <mxGeometry x="-1060" y="40" width="580" height="580" as="geometry" />
        </mxCell>
        <mxCell id="DBrMHQybnCMM6ZI2NZ-J-31" value="TELA DE PEDIDOS" style="text;html=1;strokeColor=none;fillColor=none;align=center;verticalAlign=middle;whiteSpace=wrap;rounded=0;fontStyle=5;fontSize=19;" parent="1" vertex="1">
          <mxGeometry x="-940" y="60" width="320" height="30" as="geometry" />
        </mxCell>
        <mxCell id="DBrMHQybnCMM6ZI2NZ-J-32" value="SALVAR" style="labelPosition=center;verticalLabelPosition=middle;align=center;html=1;shape=mxgraph.basic.shaded_button;dx=10;fillColor=#d5e8d4;strokeColor=#82b366;whiteSpace=wrap;rounded=0;" parent="1" vertex="1">
          <mxGeometry x="-770.25" y="570" width="80" height="40" as="geometry" />
        </mxCell>
        <mxCell id="DBrMHQybnCMM6ZI2NZ-J-33" value="EDITAR" style="labelPosition=center;verticalLabelPosition=middle;align=center;html=1;shape=mxgraph.basic.shaded_button;dx=10;fillColor=#fff2cc;strokeColor=#d6b656;whiteSpace=wrap;rounded=0;" parent="1" vertex="1">
          <mxGeometry x="-680.25" y="570" width="80" height="40" as="geometry" />
        </mxCell>
        <mxCell id="DBrMHQybnCMM6ZI2NZ-J-34" value="EXCLUIR" style="labelPosition=center;verticalLabelPosition=middle;align=center;html=1;shape=mxgraph.basic.shaded_button;dx=10;fillColor=#f8cecc;strokeColor=#b85450;whiteSpace=wrap;rounded=0;" parent="1" vertex="1">
          <mxGeometry x="-590.25" y="570" width="80" height="40" as="geometry" />
        </mxCell>
        <mxCell id="DBrMHQybnCMM6ZI2NZ-J-35" value="NOME DO CLIENTE" style="text;html=1;strokeColor=none;fillColor=none;align=center;verticalAlign=middle;whiteSpace=wrap;rounded=0;" parent="1" vertex="1">
          <mxGeometry x="-1030" y="100" width="130" height="30" as="geometry" />
        </mxCell>
        <mxCell id="DBrMHQybnCMM6ZI2NZ-J-36" value="" style="rounded=0;whiteSpace=wrap;html=1;" parent="1" vertex="1">
          <mxGeometry x="-1030" y="130" width="295" height="20" as="geometry" />
        </mxCell>
        <mxCell id="DBrMHQybnCMM6ZI2NZ-J-37" value="PESQUISAR" style="labelPosition=center;verticalLabelPosition=middle;align=center;html=1;shape=mxgraph.basic.shaded_button;dx=10;fillColor=#60a917;strokeColor=#2D7600;whiteSpace=wrap;fontColor=#ffffff;rounded=0;" parent="1" vertex="1">
          <mxGeometry x="-700" y="120" width="80" height="40" as="geometry" />
        </mxCell>
        <mxCell id="DBrMHQybnCMM6ZI2NZ-J-38" value="NOME DO TIPO DE&amp;nbsp; PRODUTO" style="text;html=1;strokeColor=none;fillColor=none;align=center;verticalAlign=middle;whiteSpace=wrap;rounded=0;" parent="1" vertex="1">
          <mxGeometry x="-1030" y="170" width="195" height="30" as="geometry" />
        </mxCell>
        <mxCell id="DBrMHQybnCMM6ZI2NZ-J-39" value="" style="rounded=0;whiteSpace=wrap;html=1;" parent="1" vertex="1">
          <mxGeometry x="-1030" y="200" width="295" height="20" as="geometry" />
        </mxCell>
        <mxCell id="DBrMHQybnCMM6ZI2NZ-J-40" value="PESQUISAR" style="labelPosition=center;verticalLabelPosition=middle;align=center;html=1;shape=mxgraph.basic.shaded_button;dx=10;fillColor=#60a917;strokeColor=#2D7600;whiteSpace=wrap;fontColor=#ffffff;rounded=0;" parent="1" vertex="1">
          <mxGeometry x="-700" y="190" width="80" height="40" as="geometry" />
        </mxCell>
        <mxCell id="DBrMHQybnCMM6ZI2NZ-J-41" value="QUANTIDADE" style="text;html=1;strokeColor=none;fillColor=none;align=center;verticalAlign=middle;whiteSpace=wrap;rounded=0;" parent="1" vertex="1">
          <mxGeometry x="-1043.25" y="250" width="118.25" height="30" as="geometry" />
        </mxCell>
        <mxCell id="DBrMHQybnCMM6ZI2NZ-J-42" value="" style="rounded=0;whiteSpace=wrap;html=1;" parent="1" vertex="1">
          <mxGeometry x="-1030" y="290" width="110" height="20" as="geometry" />
        </mxCell>
        <mxCell id="DBrMHQybnCMM6ZI2NZ-J-43" value="VALOR&amp;nbsp;" style="text;html=1;strokeColor=none;fillColor=none;align=center;verticalAlign=middle;whiteSpace=wrap;rounded=0;" parent="1" vertex="1">
          <mxGeometry x="-880" y="250" width="118.25" height="30" as="geometry" />
        </mxCell>
        <mxCell id="DBrMHQybnCMM6ZI2NZ-J-44" value="" style="rounded=0;whiteSpace=wrap;html=1;" parent="1" vertex="1">
          <mxGeometry x="-875.87" y="290" width="110" height="20" as="geometry" />
        </mxCell>
        <mxCell id="DBrMHQybnCMM6ZI2NZ-J-45" value="" style="rounded=0;whiteSpace=wrap;html=1;" parent="1" vertex="1">
          <mxGeometry x="-1030" y="350" width="500" height="100" as="geometry" />
        </mxCell>
        <mxCell id="DBrMHQybnCMM6ZI2NZ-J-46" value="FORMA DE PAGAMENTO" style="text;html=1;strokeColor=none;fillColor=none;align=center;verticalAlign=middle;whiteSpace=wrap;rounded=0;" parent="1" vertex="1">
          <mxGeometry x="-1024.12" y="455" width="144.12" height="30" as="geometry" />
        </mxCell>
        <mxCell id="DBrMHQybnCMM6ZI2NZ-J-47" value="VALOR TOTAL DO PEDIDO" style="text;html=1;strokeColor=none;fillColor=none;align=center;verticalAlign=middle;whiteSpace=wrap;rounded=0;" parent="1" vertex="1">
          <mxGeometry x="-670" y="500" width="160" height="30" as="geometry" />
        </mxCell>
        <mxCell id="DBrMHQybnCMM6ZI2NZ-J-48" value="" style="rounded=0;whiteSpace=wrap;html=1;" parent="1" vertex="1">
          <mxGeometry x="-675" y="530" width="165" height="20" as="geometry" />
        </mxCell>
        <mxCell id="DBrMHQybnCMM6ZI2NZ-J-49" value="DESCRIÇÃO DO PEDIDO" style="text;html=1;strokeColor=none;fillColor=none;align=center;verticalAlign=middle;whiteSpace=wrap;rounded=0;" parent="1" vertex="1">
          <mxGeometry x="-870" y="330" width="170" height="30" as="geometry" />
        </mxCell>
        <mxCell id="DBrMHQybnCMM6ZI2NZ-J-50" value="NOME DO PRODUTO" style="text;html=1;strokeColor=none;fillColor=none;align=center;verticalAlign=middle;whiteSpace=wrap;rounded=0;fontSize=10;" parent="1" vertex="1">
          <mxGeometry x="-990" y="350" width="110" height="30" as="geometry" />
        </mxCell>
        <mxCell id="DBrMHQybnCMM6ZI2NZ-J-51" value="QUANTIDADE" style="text;html=1;strokeColor=none;fillColor=none;align=center;verticalAlign=middle;whiteSpace=wrap;rounded=0;fontSize=10;" parent="1" vertex="1">
          <mxGeometry x="-815" y="350" width="110" height="30" as="geometry" />
        </mxCell>
        <mxCell id="DBrMHQybnCMM6ZI2NZ-J-52" value="VALOR&amp;nbsp; TOTAL R$" style="text;html=1;strokeColor=none;fillColor=none;align=center;verticalAlign=middle;whiteSpace=wrap;rounded=0;fontSize=10;" parent="1" vertex="1">
          <mxGeometry x="-670" y="350" width="110" height="30" as="geometry" />
        </mxCell>
        <mxCell id="DBrMHQybnCMM6ZI2NZ-J-53" value="" style="line;strokeWidth=2;html=1;" parent="1" vertex="1">
          <mxGeometry x="-1030" y="370" width="500" height="10" as="geometry" />
        </mxCell>
        <mxCell id="DBrMHQybnCMM6ZI2NZ-J-54" value="" style="line;strokeWidth=2;html=1;" parent="1" vertex="1">
          <mxGeometry x="-1027.5" y="395" width="500" height="10" as="geometry" />
        </mxCell>
        <mxCell id="DBrMHQybnCMM6ZI2NZ-J-55" value="" style="line;strokeWidth=2;html=1;" parent="1" vertex="1">
          <mxGeometry x="-1030" y="420" width="500" height="10" as="geometry" />
        </mxCell>
        <mxCell id="DBrMHQybnCMM6ZI2NZ-J-56" value="" style="line;strokeWidth=2;direction=south;html=1;" parent="1" vertex="1">
          <mxGeometry x="-835" y="350" width="10" height="100" as="geometry" />
        </mxCell>
        <mxCell id="DBrMHQybnCMM6ZI2NZ-J-57" value="" style="line;strokeWidth=2;direction=south;html=1;" parent="1" vertex="1">
          <mxGeometry x="-690.25" y="350" width="10" height="100" as="geometry" />
        </mxCell>
        <mxCell id="DBrMHQybnCMM6ZI2NZ-J-58" value="TELA PRINCIPAL DO PEDIDO 01&lt;br style=&quot;border-color: var(--border-color);&quot;&gt;(O CLIENTE TENDO FEITO O PRECADASTRO)" style="text;html=1;strokeColor=none;fillColor=none;align=center;verticalAlign=middle;whiteSpace=wrap;rounded=0;fontSize=20;fontFamily=Times New Roman;" parent="1" vertex="1">
          <mxGeometry x="-452.5" y="300" width="170" height="30" as="geometry" />
        </mxCell>
        <mxCell id="DBrMHQybnCMM6ZI2NZ-J-59" value="" style="whiteSpace=wrap;html=1;aspect=fixed;fillColor=#f5f5f5;fontColor=#333333;strokeColor=#666666;rounded=0;" parent="1" vertex="1">
          <mxGeometry x="-1060" y="780" width="580" height="580" as="geometry" />
        </mxCell>
        <mxCell id="DBrMHQybnCMM6ZI2NZ-J-60" value="TELA DE PEDIDOS" style="text;html=1;strokeColor=none;fillColor=none;align=center;verticalAlign=middle;whiteSpace=wrap;rounded=0;fontStyle=5;fontSize=19;" parent="1" vertex="1">
          <mxGeometry x="-940" y="800" width="320" height="30" as="geometry" />
        </mxCell>
        <mxCell id="DBrMHQybnCMM6ZI2NZ-J-61" value="SALVAR" style="labelPosition=center;verticalLabelPosition=middle;align=center;html=1;shape=mxgraph.basic.shaded_button;dx=10;fillColor=#d5e8d4;strokeColor=#82b366;whiteSpace=wrap;rounded=0;" parent="1" vertex="1">
          <mxGeometry x="-595" y="1310" width="80" height="40" as="geometry" />
        </mxCell>
        <mxCell id="DBrMHQybnCMM6ZI2NZ-J-62" value="NOME DO CLIENTE" style="text;html=1;strokeColor=none;fillColor=none;align=center;verticalAlign=middle;whiteSpace=wrap;rounded=0;" parent="1" vertex="1">
          <mxGeometry x="-1030" y="840" width="130" height="30" as="geometry" />
        </mxCell>
        <mxCell id="DBrMHQybnCMM6ZI2NZ-J-63" value="" style="rounded=0;whiteSpace=wrap;html=1;" parent="1" vertex="1">
          <mxGeometry x="-1030" y="870" width="462.5" height="20" as="geometry" />
        </mxCell>
        <mxCell id="DBrMHQybnCMM6ZI2NZ-J-64" value="ENDEREÇO&amp;nbsp;" style="text;html=1;strokeColor=none;fillColor=none;align=center;verticalAlign=middle;whiteSpace=wrap;rounded=0;" parent="1" vertex="1">
          <mxGeometry x="-1027.5" y="910" width="82.5" height="30" as="geometry" />
        </mxCell>
        <mxCell id="DBrMHQybnCMM6ZI2NZ-J-65" value="" style="rounded=0;whiteSpace=wrap;html=1;" parent="1" vertex="1">
          <mxGeometry x="-1030" y="940" width="462.5" height="20" as="geometry" />
        </mxCell>
        <mxCell id="DBrMHQybnCMM6ZI2NZ-J-66" value="CEP:" style="text;html=1;strokeColor=none;fillColor=none;align=center;verticalAlign=middle;whiteSpace=wrap;rounded=0;" parent="1" vertex="1">
          <mxGeometry x="-1024.12" y="965" width="37.5" height="30" as="geometry" />
        </mxCell>
        <mxCell id="DBrMHQybnCMM6ZI2NZ-J-67" value="" style="rounded=0;whiteSpace=wrap;html=1;" parent="1" vertex="1">
          <mxGeometry x="-1030" y="990" width="110" height="20" as="geometry" />
        </mxCell>
        <mxCell id="DBrMHQybnCMM6ZI2NZ-J-68" value="NUEMRO" style="text;html=1;strokeColor=none;fillColor=none;align=center;verticalAlign=middle;whiteSpace=wrap;rounded=0;" parent="1" vertex="1">
          <mxGeometry x="-887.5" y="965" width="56.63" height="30" as="geometry" />
        </mxCell>
        <mxCell id="DBrMHQybnCMM6ZI2NZ-J-69" value="" style="rounded=0;whiteSpace=wrap;html=1;" parent="1" vertex="1">
          <mxGeometry x="-887.75" y="990" width="110" height="20" as="geometry" />
        </mxCell>
        <mxCell id="DBrMHQybnCMM6ZI2NZ-J-70" value="" style="line;strokeWidth=2;html=1;" parent="1" vertex="1">
          <mxGeometry x="-977.5" y="995" width="10" height="10" as="geometry" />
        </mxCell>
        <mxCell id="DBrMHQybnCMM6ZI2NZ-J-71" value="COMPLEMENTO" style="text;html=1;strokeColor=none;fillColor=none;align=center;verticalAlign=middle;whiteSpace=wrap;rounded=0;" parent="1" vertex="1">
          <mxGeometry x="-702.5" y="965" width="100" height="30" as="geometry" />
        </mxCell>
        <mxCell id="DBrMHQybnCMM6ZI2NZ-J-72" value="" style="rounded=0;whiteSpace=wrap;html=1;" parent="1" vertex="1">
          <mxGeometry x="-747.5" y="990" width="180" height="20" as="geometry" />
        </mxCell>
        <mxCell id="DBrMHQybnCMM6ZI2NZ-J-73" value="CPF:" style="text;html=1;strokeColor=none;fillColor=none;align=center;verticalAlign=middle;whiteSpace=wrap;rounded=0;" parent="1" vertex="1">
          <mxGeometry x="-1030.25" y="1030" width="37.5" height="30" as="geometry" />
        </mxCell>
        <mxCell id="DBrMHQybnCMM6ZI2NZ-J-74" value="" style="rounded=0;whiteSpace=wrap;html=1;" parent="1" vertex="1">
          <mxGeometry x="-1030.25" y="1060" width="180" height="20" as="geometry" />
        </mxCell>
        <mxCell id="DBrMHQybnCMM6ZI2NZ-J-75" value="" style="line;strokeWidth=2;html=1;" parent="1" vertex="1">
          <mxGeometry x="-907.5" y="1065" width="10" height="10" as="geometry" />
        </mxCell>
        <mxCell id="DBrMHQybnCMM6ZI2NZ-J-76" value="TELEFONE 1" style="text;html=1;strokeColor=none;fillColor=none;align=center;verticalAlign=middle;whiteSpace=wrap;rounded=0;" parent="1" vertex="1">
          <mxGeometry x="-1025" y="1100" width="100" height="30" as="geometry" />
        </mxCell>
        <mxCell id="DBrMHQybnCMM6ZI2NZ-J-77" value="" style="rounded=0;whiteSpace=wrap;html=1;" parent="1" vertex="1">
          <mxGeometry x="-1030.25" y="1130" width="180" height="20" as="geometry" />
        </mxCell>
        <mxCell id="DBrMHQybnCMM6ZI2NZ-J-78" value="TELEFONE 2" style="text;html=1;strokeColor=none;fillColor=none;align=center;verticalAlign=middle;whiteSpace=wrap;rounded=0;" parent="1" vertex="1">
          <mxGeometry x="-780" y="1100" width="100" height="30" as="geometry" />
        </mxCell>
        <mxCell id="DBrMHQybnCMM6ZI2NZ-J-79" value="" style="rounded=0;whiteSpace=wrap;html=1;" parent="1" vertex="1">
          <mxGeometry x="-780" y="1130" width="180" height="20" as="geometry" />
        </mxCell>
        <mxCell id="DBrMHQybnCMM6ZI2NZ-J-80" value="TELA SECUNDARIA DO PEDIDO 02&lt;br style=&quot;border-color: var(--border-color);&quot;&gt;(CASO O CLIENTE NÃO TENHA CADASTRO)" style="text;html=1;strokeColor=none;fillColor=none;align=center;verticalAlign=middle;whiteSpace=wrap;rounded=0;fontSize=20;fontFamily=Times New Roman;" parent="1" vertex="1">
          <mxGeometry x="-460" y="1090" width="170" height="30" as="geometry" />
        </mxCell>
        <mxCell id="DBrMHQybnCMM6ZI2NZ-J-81" value="Valor automático" style="text;html=1;strokeColor=none;fillColor=none;align=center;verticalAlign=middle;whiteSpace=wrap;rounded=0;" parent="1" vertex="1">
          <mxGeometry x="-880" y="285" width="125" height="30" as="geometry" />
        </mxCell>
        <mxCell id="TViLu-vRxdkfMfK73igH-1" value="Valor automático" style="text;html=1;strokeColor=none;fillColor=none;align=center;verticalAlign=middle;whiteSpace=wrap;rounded=0;" vertex="1" parent="1">
          <mxGeometry x="-655" y="525" width="125" height="30" as="geometry" />
        </mxCell>
      </root>
    </mxGraphModel>
  </diagram>
</mxfile>
